<svg xmlns="http://www.w3.org/2000/svg" width="1280" height="640" viewBox="0 0 1280 640">
  <rect width="1280" height="640" fill="#0d1117"/>
  <g transform="translate(1100 42) scale(6)" shape-rendering="crispEdges">
    <rect x="9" y="0" width="2" height="1" fill="#e5484d"/>
    <rect x="13" y="0" width="1" height="1" fill="#6e4a2f"/><rect x="14" y="0" width="1" height="1" fill="#5d3f28"/><rect x="15" y="0" width="1" height="1" fill="#6e4a2f"/>
    <rect x="8" y="1" width="4" height="1" fill="#e5484d"/>
    <rect x="13" y="1" width="1" height="1" fill="#6e4a2f"/><rect x="14" y="1" width="1" height="1" fill="#5d3f28"/><rect x="15" y="1" width="1" height="1" fill="#6e4a2f"/>
    <rect x="8" y="2" width="1" height="1" fill="#2d333b"/><rect x="9" y="2" width="1" height="1" fill="#f0f6fc"/><rect x="10" y="2" width="2" height="1" fill="#2d333b"/>
    <rect x="13" y="2" width="1" height="1" fill="#6e4a2f"/><rect x="14" y="2" width="1" height="1" fill="#5d3f28"/><rect x="15" y="2" width="1" height="1" fill="#6e4a2f"/>
    <rect x="8" y="3" width="3" height="1" fill="#2d333b"/><rect x="11" y="3" width="2" height="1" fill="#d4a72c"/>
    <rect x="13" y="3" width="1" height="1" fill="#6e4a2f"/><rect x="14" y="3" width="1" height="1" fill="#5d3f28"/><rect x="15" y="3" width="1" height="1" fill="#6e4a2f"/>
    <rect x="7" y="4" width="5" height="1" fill="#2d333b"/>
    <rect x="13" y="4" width="1" height="1" fill="#6e4a2f"/><rect x="14" y="4" width="1" height="1" fill="#5d3f28"/><rect x="15" y="4" width="1" height="1" fill="#6e4a2f"/>
    <rect x="6" y="5" width="1" height="1" fill="#2d333b"/><rect x="7" y="5" width="1" height="1" fill="#f0f6fc"/><rect x="8" y="5" width="4" height="1" fill="#2d333b"/>
    <rect x="13" y="5" width="1" height="1" fill="#6e4a2f"/><rect x="14" y="5" width="1" height="1" fill="#5d3f28"/><rect x="15" y="5" width="1" height="1" fill="#6e4a2f"/>
    <rect x="6" y="6" width="1" height="1" fill="#2d333b"/><rect x="7" y="6" width="2" height="1" fill="#f0f6fc"/><rect x="9" y="6" width="3" height="1" fill="#2d333b"/>
    <rect x="13" y="6" width="1" height="1" fill="#6e4a2f"/><rect x="14" y="6" width="1" height="1" fill="#5d3f28"/><rect x="15" y="6" width="1" height="1" fill="#6e4a2f"/>
    <rect x="5" y="7" width="2" height="1" fill="#2d333b"/><rect x="7" y="7" width="3" height="1" fill="#f0f6fc"/><rect x="10" y="7" width="2" height="1" fill="#2d333b"/>
    <rect x="13" y="7" width="1" height="1" fill="#6e4a2f"/><rect x="14" y="7" width="1" height="1" fill="#5d3f28"/><rect x="15" y="7" width="1" height="1" fill="#6e4a2f"/>
    <rect x="5" y="8" width="3" height="1" fill="#2d333b"/><rect x="8" y="8" width="2" height="1" fill="#f0f6fc"/><rect x="10" y="8" width="1" height="1" fill="#2d333b"/>
    <rect x="13" y="8" width="1" height="1" fill="#6e4a2f"/><rect x="14" y="8" width="1" height="1" fill="#5d3f28"/><rect x="15" y="8" width="1" height="1" fill="#6e4a2f"/>
    <rect x="6" y="9" width="4" height="1" fill="#2d333b"/>
    <rect x="13" y="9" width="1" height="1" fill="#6e4a2f"/><rect x="14" y="9" width="1" height="1" fill="#5d3f28"/><rect x="15" y="9" width="1" height="1" fill="#6e4a2f"/>
    <rect x="7" y="10" width="3" height="1" fill="#2d333b"/><rect x="12" y="10" width="1" height="1" fill="#2d333b"/>
    <rect x="13" y="10" width="1" height="1" fill="#6e4a2f"/><rect x="14" y="10" width="1" height="1" fill="#5d3f28"/><rect x="15" y="10" width="1" height="1" fill="#6e4a2f"/>
    <rect x="7" y="11" width="2" height="1" fill="#2d333b"/>
    <rect x="13" y="11" width="1" height="1" fill="#6e4a2f"/><rect x="14" y="11" width="1" height="1" fill="#5d3f28"/><rect x="15" y="11" width="1" height="1" fill="#6e4a2f"/>
    <rect x="8" y="12" width="2" height="1" fill="#2d333b"/>
    <rect x="13" y="12" width="1" height="1" fill="#6e4a2f"/><rect x="14" y="12" width="1" height="1" fill="#5d3f28"/><rect x="15" y="12" width="1" height="1" fill="#6e4a2f"/>
    <rect x="9" y="13" width="2" height="1" fill="#2d333b"/>
    <rect x="13" y="13" width="1" height="1" fill="#6e4a2f"/><rect x="14" y="13" width="1" height="1" fill="#5d3f28"/><rect x="15" y="13" width="1" height="1" fill="#6e4a2f"/>
  </g>

  <text x="70" y="72" fill="#8b949e" font-family="Arial, Helvetica, sans-serif" font-size="22" font-weight="700" letter-spacing="5">PICCHIO</text>
  <text x="70" y="158" fill="#f0f6fc" font-family="Arial, Helvetica, sans-serif" font-size="45" font-weight="700">Ollama returned 200 OK with 9% of a 35B on CPU</text>

  <rect x="70" y="218" width="470" height="210" rx="12" fill="#161b22" stroke="#30363d" stroke-width="2"/>
  <text x="106" y="268" fill="#8b949e" font-family="ui-monospace, SFMono-Regular, Menlo, monospace" font-size="20">OLLAMA · QWEN3.6-35B-A3B</text>
  <text x="106" y="337" fill="#3fb950" font-family="ui-monospace, SFMono-Regular, Menlo, monospace" font-size="38" font-weight="700">HTTP 200 OK</text>
  <text x="106" y="388" fill="#8b949e" font-family="ui-monospace, SFMono-Regular, Menlo, monospace" font-size="22">ctx 262144</text>

  <rect x="570" y="218" width="640" height="210" rx="12" fill="#161b22" stroke="#e5484d" stroke-width="2"/>
  <text x="606" y="268" fill="#e5484d" font-family="ui-monospace, SFMono-Regular, Menlo, monospace" font-size="20" font-weight="700">PICCHIO · PARTIAL OFFLOAD</text>
  <text x="606" y="337" fill="#e5484d" font-family="ui-monospace, SFMono-Regular, Menlo, monospace" font-size="38" font-weight="700">9% CPU</text>
  <text x="798" y="337" fill="#8b949e" font-family="ui-monospace, SFMono-Regular, Menlo, monospace" font-size="38">·</text>
  <text x="840" y="337" fill="#3fb950" font-family="ui-monospace, SFMono-Regular, Menlo, monospace" font-size="38" font-weight="700">91% GPU</text>
  <text x="606" y="388" fill="#f0f6fc" font-family="ui-monospace, SFMono-Regular, Menlo, monospace" font-size="22">caught in 2 seconds</text>

  <rect x="70" y="478" width="1140" height="96" rx="12" fill="#161b22"/>
  <text x="106" y="538" fill="#f0f6fc" font-family="ui-monospace, SFMono-Regular, Menlo, monospace" font-size="29"><tspan fill="#8b949e">$ </tspan>./picchio guard ollama --for 2</text>
</svg>
